<svg width="24" height="24" viewBox="0 0 24 24" fill="none" xmlns="http://www.w3.org/2000/svg"><rect width="24" height="24" fill="none" rx="0" ry="0"></rect><path fill-rule="evenodd" clip-rule="evenodd" d="M20.2788 4.74C19.1588 3.62 17.6688 3 16.0888 3C14.5588 3 13.1188 3.58 11.9988 4.64C10.8888 3.58 9.44878 3 7.90878 3C6.32878 3 4.84878 3.62 3.72878 4.74C1.42878 7.06 1.42878 10.82 3.72878 13.12L11.2988 20.71C11.4888 20.89 11.7488 21 12.0088 21C12.2788 21 12.5288 20.89 12.7188 20.71L20.2788 13.12C22.5688 10.81 22.5688 7.05 20.2788 4.74Z" fill="#ffffff"></path></svg>